<svg viewBox="0 0 23 11" fill="black" xmlns="http://www.w3.org/2000/svg">
<mask id="path-1-inside-1_1367_2139" fill="white">
<path d="M0.5 -2.62347e-07L11.5 11L22.5 0" stroke="none"/>
</mask>
<path d="M-0.914213 1.41421L-2.32843 -2.96076e-07L0.5 -2.82843L1.91421 -1.41421L-0.914213 1.41421ZM11.5 11L12.9142 12.4142C12.5391 12.7893 12.0304 13 11.5 13C10.9696 13 10.4609 12.7893 10.0858 12.4142L11.5 11ZM21.0858 -1.41421L22.5 -2.82843L25.3284 3.37287e-08L23.9142 1.41421L21.0858 -1.41421ZM1.91421 -1.41421L12.9142 9.58579L10.0858 12.4142L-0.914213 1.41421L1.91421 -1.41421ZM10.0858 9.58579L21.0858 -1.41421L23.9142 1.41421L12.9142 12.4142L10.0858 9.58579Z"
      stroke="none" mask="url(#path-1-inside-1_1367_2139)"/>
</svg>
