<svg width="18" height="18" viewBox="0 0 18 18" fill="none" xmlns="http://www.w3.org/2000/svg">
<path d="M15.677 17.107L9.96198 11.391C7.41965 13.1985 3.91642 12.7564 1.90285 10.3739C-0.110711 7.99153 0.0371394 4.46361 2.24298 2.25802C4.44824 0.0514663 7.97651 -0.097024 10.3594 1.91644C12.7422 3.92989 13.1846 7.43347 11.377 9.97602L17.092 15.692L15.678 17.106L15.677 17.107ZM6.48498 2.50001C4.58868 2.49958 2.95267 3.8307 2.56745 5.68746C2.18224 7.54421 3.15369 9.41629 4.89366 10.1703C6.63362 10.9242 8.66388 10.3529 9.75522 8.80207C10.8466 7.25129 10.699 5.14734 9.40198 3.76402L10.007 4.36402L9.32498 3.68402L9.31298 3.67202C8.56477 2.9192 7.54638 2.49715 6.48498 2.50001Z" fill="#424041"/>
</svg>
