<svg viewBox="0 0 64 56" fill="black" xmlns="http://www.w3.org/2000/svg">
<path fill-rule="evenodd" clip-rule="evenodd" d="M0 55.182V0.818359H21.6591C23.3189 0.818359 26.37 0.818551 26.37 0.818551L63.6541 0.818359V11.9462H40.2638C41.0431 14.0566 41.4261 16.3865 41.4261 18.9235C41.4261 20.1411 41.3377 21.3083 41.1593 22.4235H61.8388V33.5513H39.441V44.0542H63.7564V55.182H26.37V49.3775L19.553 36.6195H13.071V55.182H0ZM12.071 35.6195H20.1524L27.37 49.1271V54.182H62.7564V45.0542H38.441V32.5513H60.8388V23.4235H39.9478C40.0226 23.0958 40.0887 22.7625 40.1459 22.4235C40.3327 21.3173 40.4261 20.1506 40.4261 18.9235C40.4261 16.6208 40.0978 14.5181 39.441 12.6155C39.363 12.3896 39.2804 12.1665 39.1932 11.9462C39.0585 11.6061 38.9128 11.2728 38.7561 10.9462H62.6541V1.81836H27.37C27.37 1.81836 23.3333 1.81836 21.6591 1.81836H1V54.182H12.071V35.6195ZM27.37 13.6559C27.0778 13.3064 26.7445 12.9895 26.37 12.7051C25.9168 12.3609 25.4033 12.0644 24.8295 11.8155C23.4318 11.1848 21.6676 10.8695 19.5369 10.8695H12.071V26.7218H19.5881C21.7017 26.7218 23.4574 26.432 24.8551 25.8525C25.4182 25.619 25.9231 25.3385 26.37 25.011C26.744 24.7369 27.0774 24.4298 27.37 24.0898V13.6559ZM26.37 14.038C25.8639 13.5124 25.2231 13.0762 24.4316 12.7329L24.4249 12.73L24.4183 12.727C23.1898 12.1727 21.5775 11.8695 19.5369 11.8695H13.071V25.7218H19.5881C21.6188 25.7218 23.2337 25.4422 24.4721 24.9287C25.2448 24.6083 25.8721 24.197 26.37 23.6984V14.038Z"
      stroke="none"/>
</svg>
